# Alias OBJ Model File
# Exported from SketchUp, (c) 2000-2012 Trimble Navigation Limited
# File units = meters

mtllib EscapeRoom_doorframe.mtl

g Mesh1 Model

usemtl FrontColor
v 0.353768 0 -3.974
vt -13.9279 156.457
vn 0 -1 -0
v 0.353768 0 -4
vt -13.9279 157.48
v 0.444248 0 -4
vt -17.4901 157.48
v 0.444248 0 -3.987
vt -17.4901 156.969
v 0.368848 0 -3.987
vt -14.5216 156.969
v 0.368848 0 -3.974
vt -14.5216 156.457
f 1/1/1 2/2/1 3/3/1 4/4/1 5/5/1 6/6/1 

vt -157.48 0
vn -1 0 -0
vt -156.457 0
v 0.353768 2.12248 -3.974
vt -156.457 83.5622
v 0.353768 2.12248 -4
vt -157.48 83.5622
f 2/7/2 1/8/2 7/9/2 8/10/2 

v 1.43405 2.1074 -3.974
vt 56.4586 82.9685
vn 1.67033e-15 8.53326e-16 1
v 1.43405 0 -3.974
vt 56.4586 1.33509e-13
v 1.44913 0 -3.974
vt 57.0523 1.33509e-13
v 1.44913 2.12248 -3.974
vt 57.0523 83.5622
vt 13.9279 83.5622
vt 13.9279 1.33509e-13
vt 14.5216 1.33509e-13
v 0.368848 2.1074 -3.974
vt 14.5216 82.9685
f 9/11/3 10/12/3 11/13/3 12/14/3 7/15/3 1/16/3 6/17/3 13/18/3 

vt -156.457 82.9685
v 1.43405 2.1074 -3.987
vt -156.969 82.9685
v 1.43405 0 -3.987
vt -156.969 0
f 9/19/2 14/20/2 15/21/2 10/8/2 

v 0.368848 2.1074 -3.987
vt -56.4586 156.969
vt -56.4586 156.457
f 13/6/1 16/5/1 14/22/1 9/23/1 

vt 156.457 0
vn 1 0 -0
vt 156.969 0
vt 156.969 82.9685
vt 156.457 82.9685
f 6/24/4 5/25/4 16/26/4 13/27/4 

vt 14.5216 1.36786e-13
vn 1.81286e-15 8.71422e-16 1
vt 17.4901 1.36786e-13
v 0.444248 2.032 -3.987
vt 17.4901 80
v 1.35865 2.032 -3.987
vt 53.4901 80
v 1.35865 0 -3.987
vt 53.4901 1.36786e-13
vt 56.4586 1.36786e-13
f 5/28/5 4/29/5 17/30/5 18/31/5 19/32/5 15/33/5 14/11/5 16/18/5 

vt 157.48 0
v 0.444248 2.032 -4
vt 157.48 80
vt 156.969 80
f 4/25/4 3/34/4 20/35/4 17/36/4 

vt -17.4901 1.36695e-13
vn -1.78157e-15 -8.68011e-16 -1
vt -13.9279 1.36695e-13
vt -13.9279 83.5622
v 1.44913 2.12248 -4
vt -57.0523 83.5622
v 1.44913 0 -4
vt -57.0523 1.36695e-13
v 1.35865 0 -4
vt -53.4901 1.36695e-13
v 1.35865 2.032 -4
vt -53.4901 80
vt -17.4901 80
f 3/37/6 2/38/6 8/39/6 21/40/6 22/41/6 23/42/6 24/43/6 20/44/6 

vt 13.9279 157.48
vn 0 1 -0
vt 13.9279 156.457
vt 57.0523 156.457
vt 57.0523 157.48
f 8/45/7 7/46/7 12/47/7 21/48/7 

vt 157.48 83.5622
vt 156.457 83.5622
f 21/49/4 12/50/4 11/24/4 22/34/4 

vt -57.0523 157.48
vn 0 -1 1.77636e-15
vt -57.0523 156.457
vt -53.4901 156.969
vt -53.4901 157.48
f 22/51/8 11/52/8 10/23/8 15/22/8 19/53/8 23/54/8 

vt -156.969 80
vt -157.48 80
f 18/55/2 24/56/2 23/7/2 19/21/2 

f 17/4/1 20/3/1 24/54/1 18/53/1 

